#define BILIBILI_BMP_width 44
#define BILIBILI_BMP_height 42
static unsigned char BILIBILI_BMP_bits[] = {
   0x00, 0x00, 0x00, 0x00, 0x00, 0x00, 0x00, 0x60, 0x00, 0x60, 0x00, 0x00,
   0x00, 0xf0, 0x00, 0xf0, 0x00, 0x00, 0x00, 0xf0, 0x00, 0xf0, 0x00, 0x00,
   0x00, 0xf0, 0x01, 0xf8, 0x00, 0x00, 0x00, 0xe0, 0x03, 0x7c, 0x00, 0x00,
   0x00, 0xc0, 0x03, 0x3c, 0x00, 0x00, 0xe0, 0xff, 0xff, 0xff, 0x7f, 0x00,
   0xf0, 0xff, 0xff, 0xff, 0xff, 0x00, 0xf8, 0x00, 0x00, 0x00, 0xe0, 0x01,
   0x1c, 0x00, 0x00, 0x00, 0x80, 0x03, 0x0e, 0x00, 0x00, 0x00, 0x00, 0x07,
   0x06, 0xff, 0xff, 0xff, 0x0f, 0x06, 0x86, 0x01, 0x00, 0x00, 0x18, 0x06,
   0xc6, 0x00, 0x00, 0x00, 0x30, 0x06, 0x46, 0x00, 0x00, 0x00, 0x20, 0x06,
   0x46, 0x00, 0x00, 0x00, 0x20, 0x06, 0x46, 0x00, 0x00, 0x00, 0x20, 0x06,
   0x46, 0x00, 0x00, 0x00, 0x20, 0x06, 0x46, 0x80, 0x03, 0x1c, 0x20, 0x06,
   0x46, 0xf0, 0x03, 0x7e, 0x20, 0x06, 0x46, 0xfc, 0x03, 0xf8, 0x23, 0x06,
   0x46, 0x3c, 0x00, 0xe0, 0x23, 0x06, 0x46, 0x08, 0x00, 0x80, 0x21, 0x06,
   0x46, 0x00, 0x00, 0x00, 0x20, 0x06, 0x46, 0x00, 0x62, 0x04, 0x20, 0x06,
   0x46, 0x00, 0x22, 0x04, 0x20, 0x06, 0x46, 0x00, 0x62, 0x04, 0x20, 0x06,
   0x46, 0x00, 0x9c, 0x03, 0x20, 0x06, 0x46, 0x00, 0x00, 0x00, 0x20, 0x06,
   0x46, 0x00, 0x00, 0x00, 0x20, 0x06, 0x46, 0x00, 0x00, 0x00, 0x20, 0x06,
   0x46, 0x00, 0x00, 0x00, 0x20, 0x06, 0xc6, 0x00, 0x00, 0x00, 0x30, 0x06,
   0x86, 0x01, 0x00, 0x00, 0x18, 0x06, 0x06, 0xff, 0xff, 0xff, 0x0f, 0x06,
   0x0e, 0x00, 0x00, 0x00, 0x00, 0x07, 0x1c, 0x00, 0x00, 0x00, 0x80, 0x03,
   0x78, 0x00, 0x00, 0x00, 0xc0, 0x01, 0xe0, 0xff, 0xff, 0xff, 0xff, 0x00,
   0xc0, 0xff, 0xff, 0xff, 0x7f, 0x00, 0x00, 0x00, 0x00, 0x00, 0x00, 0x00 };
